G04 #@! TF.GenerationSoftware,KiCad,Pcbnew,(5.1.5-0-10_14)*
G04 #@! TF.CreationDate,2020-03-07T15:43:49+00:00*
G04 #@! TF.ProjectId,WhimsyBottomPlate,5768696d-7379-4426-9f74-746f6d506c61,0.2*
G04 #@! TF.SameCoordinates,Original*
G04 #@! TF.FileFunction,Soldermask,Top*
G04 #@! TF.FilePolarity,Negative*
%FSLAX46Y46*%
G04 Gerber Fmt 4.6, Leading zero omitted, Abs format (unit mm)*
G04 Created by KiCad (PCBNEW (5.1.5-0-10_14)) date 2020-03-07 15:43:49*
%MOMM*%
%LPD*%
G04 APERTURE LIST*
%ADD10C,0.100000*%
G04 APERTURE END LIST*
D10*
G36*
X276449549Y-134602366D02*
G01*
X276560734Y-134624482D01*
X276770203Y-134711247D01*
X276958720Y-134837210D01*
X277119040Y-134997530D01*
X277245003Y-135186047D01*
X277331768Y-135395516D01*
X277376000Y-135617886D01*
X277376000Y-135844614D01*
X277331768Y-136066984D01*
X277245003Y-136276453D01*
X277119040Y-136464970D01*
X276958720Y-136625290D01*
X276770203Y-136751253D01*
X276560734Y-136838018D01*
X276449549Y-136860134D01*
X276338365Y-136882250D01*
X276111635Y-136882250D01*
X276000451Y-136860134D01*
X275889266Y-136838018D01*
X275679797Y-136751253D01*
X275491280Y-136625290D01*
X275330960Y-136464970D01*
X275204997Y-136276453D01*
X275118232Y-136066984D01*
X275074000Y-135844614D01*
X275074000Y-135617886D01*
X275118232Y-135395516D01*
X275204997Y-135186047D01*
X275330960Y-134997530D01*
X275491280Y-134837210D01*
X275679797Y-134711247D01*
X275889266Y-134624482D01*
X276000451Y-134602366D01*
X276111635Y-134580250D01*
X276338365Y-134580250D01*
X276449549Y-134602366D01*
G37*
G36*
X205012049Y-134602366D02*
G01*
X205123234Y-134624482D01*
X205332703Y-134711247D01*
X205521220Y-134837210D01*
X205681540Y-134997530D01*
X205807503Y-135186047D01*
X205894268Y-135395516D01*
X205938500Y-135617886D01*
X205938500Y-135844614D01*
X205894268Y-136066984D01*
X205807503Y-136276453D01*
X205681540Y-136464970D01*
X205521220Y-136625290D01*
X205332703Y-136751253D01*
X205123234Y-136838018D01*
X205012049Y-136860134D01*
X204900865Y-136882250D01*
X204674135Y-136882250D01*
X204562951Y-136860134D01*
X204451766Y-136838018D01*
X204242297Y-136751253D01*
X204053780Y-136625290D01*
X203893460Y-136464970D01*
X203767497Y-136276453D01*
X203680732Y-136066984D01*
X203636500Y-135844614D01*
X203636500Y-135617886D01*
X203680732Y-135395516D01*
X203767497Y-135186047D01*
X203893460Y-134997530D01*
X204053780Y-134837210D01*
X204242297Y-134711247D01*
X204451766Y-134624482D01*
X204562951Y-134602366D01*
X204674135Y-134580250D01*
X204900865Y-134580250D01*
X205012049Y-134602366D01*
G37*
G36*
X90712049Y-134602366D02*
G01*
X90823234Y-134624482D01*
X91032703Y-134711247D01*
X91221220Y-134837210D01*
X91381540Y-134997530D01*
X91507503Y-135186047D01*
X91594268Y-135395516D01*
X91638500Y-135617886D01*
X91638500Y-135844614D01*
X91594268Y-136066984D01*
X91507503Y-136276453D01*
X91381540Y-136464970D01*
X91221220Y-136625290D01*
X91032703Y-136751253D01*
X90823234Y-136838018D01*
X90712049Y-136860134D01*
X90600865Y-136882250D01*
X90374135Y-136882250D01*
X90262951Y-136860134D01*
X90151766Y-136838018D01*
X89942297Y-136751253D01*
X89753780Y-136625290D01*
X89593460Y-136464970D01*
X89467497Y-136276453D01*
X89380732Y-136066984D01*
X89336500Y-135844614D01*
X89336500Y-135617886D01*
X89380732Y-135395516D01*
X89467497Y-135186047D01*
X89593460Y-134997530D01*
X89753780Y-134837210D01*
X89942297Y-134711247D01*
X90151766Y-134624482D01*
X90262951Y-134602366D01*
X90374135Y-134580250D01*
X90600865Y-134580250D01*
X90712049Y-134602366D01*
G37*
G36*
X19274549Y-134602366D02*
G01*
X19385734Y-134624482D01*
X19595203Y-134711247D01*
X19783720Y-134837210D01*
X19944040Y-134997530D01*
X20070003Y-135186047D01*
X20156768Y-135395516D01*
X20201000Y-135617886D01*
X20201000Y-135844614D01*
X20156768Y-136066984D01*
X20070003Y-136276453D01*
X19944040Y-136464970D01*
X19783720Y-136625290D01*
X19595203Y-136751253D01*
X19385734Y-136838018D01*
X19274549Y-136860134D01*
X19163365Y-136882250D01*
X18936635Y-136882250D01*
X18825451Y-136860134D01*
X18714266Y-136838018D01*
X18504797Y-136751253D01*
X18316280Y-136625290D01*
X18155960Y-136464970D01*
X18029997Y-136276453D01*
X17943232Y-136066984D01*
X17899000Y-135844614D01*
X17899000Y-135617886D01*
X17943232Y-135395516D01*
X18029997Y-135186047D01*
X18155960Y-134997530D01*
X18316280Y-134837210D01*
X18504797Y-134711247D01*
X18714266Y-134624482D01*
X18825451Y-134602366D01*
X18936635Y-134580250D01*
X19163365Y-134580250D01*
X19274549Y-134602366D01*
G37*
G36*
X276449549Y-58402366D02*
G01*
X276560734Y-58424482D01*
X276770203Y-58511247D01*
X276958720Y-58637210D01*
X277119040Y-58797530D01*
X277245003Y-58986047D01*
X277331768Y-59195516D01*
X277376000Y-59417886D01*
X277376000Y-59644614D01*
X277331768Y-59866984D01*
X277245003Y-60076453D01*
X277119040Y-60264970D01*
X276958720Y-60425290D01*
X276770203Y-60551253D01*
X276560734Y-60638018D01*
X276449549Y-60660134D01*
X276338365Y-60682250D01*
X276111635Y-60682250D01*
X276000451Y-60660134D01*
X275889266Y-60638018D01*
X275679797Y-60551253D01*
X275491280Y-60425290D01*
X275330960Y-60264970D01*
X275204997Y-60076453D01*
X275118232Y-59866984D01*
X275074000Y-59644614D01*
X275074000Y-59417886D01*
X275118232Y-59195516D01*
X275204997Y-58986047D01*
X275330960Y-58797530D01*
X275491280Y-58637210D01*
X275679797Y-58511247D01*
X275889266Y-58424482D01*
X276000451Y-58402366D01*
X276111635Y-58380250D01*
X276338365Y-58380250D01*
X276449549Y-58402366D01*
G37*
G36*
X205012049Y-58402366D02*
G01*
X205123234Y-58424482D01*
X205332703Y-58511247D01*
X205521220Y-58637210D01*
X205681540Y-58797530D01*
X205807503Y-58986047D01*
X205894268Y-59195516D01*
X205938500Y-59417886D01*
X205938500Y-59644614D01*
X205894268Y-59866984D01*
X205807503Y-60076453D01*
X205681540Y-60264970D01*
X205521220Y-60425290D01*
X205332703Y-60551253D01*
X205123234Y-60638018D01*
X205012049Y-60660134D01*
X204900865Y-60682250D01*
X204674135Y-60682250D01*
X204562951Y-60660134D01*
X204451766Y-60638018D01*
X204242297Y-60551253D01*
X204053780Y-60425290D01*
X203893460Y-60264970D01*
X203767497Y-60076453D01*
X203680732Y-59866984D01*
X203636500Y-59644614D01*
X203636500Y-59417886D01*
X203680732Y-59195516D01*
X203767497Y-58986047D01*
X203893460Y-58797530D01*
X204053780Y-58637210D01*
X204242297Y-58511247D01*
X204451766Y-58424482D01*
X204562951Y-58402366D01*
X204674135Y-58380250D01*
X204900865Y-58380250D01*
X205012049Y-58402366D01*
G37*
G36*
X90712049Y-58402366D02*
G01*
X90823234Y-58424482D01*
X91032703Y-58511247D01*
X91221220Y-58637210D01*
X91381540Y-58797530D01*
X91507503Y-58986047D01*
X91594268Y-59195516D01*
X91638500Y-59417886D01*
X91638500Y-59644614D01*
X91594268Y-59866984D01*
X91507503Y-60076453D01*
X91381540Y-60264970D01*
X91221220Y-60425290D01*
X91032703Y-60551253D01*
X90823234Y-60638018D01*
X90712049Y-60660134D01*
X90600865Y-60682250D01*
X90374135Y-60682250D01*
X90262951Y-60660134D01*
X90151766Y-60638018D01*
X89942297Y-60551253D01*
X89753780Y-60425290D01*
X89593460Y-60264970D01*
X89467497Y-60076453D01*
X89380732Y-59866984D01*
X89336500Y-59644614D01*
X89336500Y-59417886D01*
X89380732Y-59195516D01*
X89467497Y-58986047D01*
X89593460Y-58797530D01*
X89753780Y-58637210D01*
X89942297Y-58511247D01*
X90151766Y-58424482D01*
X90262951Y-58402366D01*
X90374135Y-58380250D01*
X90600865Y-58380250D01*
X90712049Y-58402366D01*
G37*
G36*
X19274549Y-58402366D02*
G01*
X19385734Y-58424482D01*
X19595203Y-58511247D01*
X19783720Y-58637210D01*
X19944040Y-58797530D01*
X20070003Y-58986047D01*
X20156768Y-59195516D01*
X20201000Y-59417886D01*
X20201000Y-59644614D01*
X20156768Y-59866984D01*
X20070003Y-60076453D01*
X19944040Y-60264970D01*
X19783720Y-60425290D01*
X19595203Y-60551253D01*
X19385734Y-60638018D01*
X19274549Y-60660134D01*
X19163365Y-60682250D01*
X18936635Y-60682250D01*
X18825451Y-60660134D01*
X18714266Y-60638018D01*
X18504797Y-60551253D01*
X18316280Y-60425290D01*
X18155960Y-60264970D01*
X18029997Y-60076453D01*
X17943232Y-59866984D01*
X17899000Y-59644614D01*
X17899000Y-59417886D01*
X17943232Y-59195516D01*
X18029997Y-58986047D01*
X18155960Y-58797530D01*
X18316280Y-58637210D01*
X18504797Y-58511247D01*
X18714266Y-58424482D01*
X18825451Y-58402366D01*
X18936635Y-58380250D01*
X19163365Y-58380250D01*
X19274549Y-58402366D01*
G37*
M02*
