M48
; DRILL file {KiCad (5.1.5-0-10_14)} date Saturday, 07 March 2020 at 02:37:26
; FORMAT={3:3/ absolute / metric / suppress leading zeros}
; #@! TF.CreationDate,2020-03-07T02:37:26+00:00
; #@! TF.GenerationSoftware,Kicad,Pcbnew,(5.1.5-0-10_14)
FMAT,2
METRIC,TZ
T1C0.400
T2C0.813
T3C1.000
T4C1.092
T5C1.500
T6C1.702
T7C2.200
T8C3.048
T9C3.988
%
G90
G05
T1
X85725Y-97631
X104775Y-100012
X133350Y-60166
X157163Y-80962
X178594Y-97631
X192881Y-116681
X195263Y-114300
X197644Y-92869
X200025Y-97631
X202406Y-116681
X211931Y-116681
X242739Y-97391
X252413Y-109538
X254794Y-107156
X259556Y-95250
X259556Y-107156
X266700Y-73819
X269081Y-76200
X273844Y-95250
T2
X262907Y-94488
X265447Y-94488
X267987Y-94488
X270527Y-94488
T3
X104775Y-103256
X104775Y-111056
X60643Y-84206
X60643Y-92006
X200025Y-103256
X200025Y-111056
X132080Y-65188
X132080Y-72988
X161925Y-103256
X161925Y-111056
X47625Y-103256
X47625Y-111056
X219075Y-122306
X219075Y-130106
X117793Y-84206
X117793Y-92006
X116681Y-122306
X116681Y-130106
X176213Y-84206
X176213Y-92006
X113030Y-65188
X113030Y-72988
X214313Y-84206
X214313Y-92006
X264200Y-106800
X264200Y-121300
X266700Y-106800
X269200Y-106800
X269200Y-121300
X230981Y-65188
X230981Y-72988
X95250Y-122306
X95250Y-130106
X151130Y-65188
X151130Y-72988
X238125Y-122306
X238125Y-130106
X119063Y-122306
X119063Y-130106
X171450Y-65188
X171450Y-72988
X98743Y-84206
X98743Y-92006
X142875Y-103256
X142875Y-111056
X219075Y-103256
X219075Y-111056
X123825Y-103256
X123825Y-111056
X209550Y-65188
X209550Y-72988
X157163Y-122306
X157163Y-130106
X93980Y-65188
X93980Y-72988
X233363Y-84206
X233363Y-92006
X85725Y-103256
X85725Y-111056
X200025Y-122306
X200025Y-130106
X36830Y-65188
X36830Y-72988
X79756Y-84238
X79756Y-92038
X66675Y-103256
X66675Y-111056
X228600Y-65188
X228600Y-72988
X39211Y-84206
X39211Y-92006
X262800Y-124936
X270600Y-124936
X180975Y-103256
X180975Y-111056
X235744Y-84206
X235744Y-92006
X45244Y-103256
X45244Y-111056
X190500Y-65188
X190500Y-72988
X74930Y-65188
X74930Y-72988
X238125Y-103256
X238125Y-111056
X38100Y-122306
X38100Y-130106
X76200Y-122306
X76200Y-130106
X195263Y-84206
X195263Y-92006
X136843Y-84206
X136843Y-92006
X252413Y-92531
X252413Y-95131
X252413Y-97631
X180975Y-122306
X180975Y-130106
X57150Y-122306
X57150Y-130106
X55880Y-65188
X55880Y-72988
X155892Y-84206
X155892Y-92006
T4
X259080Y-62230
X259080Y-64770
X259080Y-67310
X259080Y-69850
X259080Y-72390
X259080Y-74930
X259080Y-77470
X259080Y-80010
X259080Y-82550
X259080Y-85090
X259080Y-87630
X259080Y-90170
X261620Y-90170
X264160Y-90170
X266700Y-90170
X269240Y-90170
X271780Y-90170
X274091Y-90170
X274320Y-62230
X274320Y-64770
X274320Y-67310
X274320Y-69850
X274320Y-72390
X274320Y-74930
X274320Y-77470
X274320Y-80010
X274320Y-82550
X274320Y-85090
X274320Y-87630
T6
X223520Y-126238
X233680Y-126238
X28258Y-107156
X38417Y-107156
X99695Y-69056
X109855Y-69056
X133033Y-126206
X143193Y-126206
X242570Y-107156
X252730Y-107156
X23495Y-69056
X33655Y-69056
X123507Y-88106
X133668Y-88106
X142558Y-88106
X152718Y-88106
X223520Y-107156
X233680Y-107156
X102076Y-126206
X112236Y-126206
X42545Y-126206
X52705Y-126206
X23495Y-126206
X33655Y-126206
X185420Y-107156
X195580Y-107156
X163989Y-126206
X174149Y-126206
X137795Y-69056
X147955Y-69056
X71120Y-107156
X81280Y-107156
X240189Y-88106
X250349Y-88106
X52070Y-107156
X62230Y-107156
X194945Y-69056
X205105Y-69056
X128270Y-107156
X138430Y-107156
X166370Y-107156
X176530Y-107156
X204470Y-126206
X214630Y-126206
X61595Y-126206
X71755Y-126206
X213995Y-69056
X224155Y-69056
X104458Y-88106
X114618Y-88106
X199708Y-88106
X209867Y-88106
X66358Y-88106
X76518Y-88106
X175895Y-69056
X186055Y-69056
X185420Y-126206
X195580Y-126206
X80645Y-69056
X90805Y-69056
X90170Y-107156
X100330Y-107156
X42545Y-69056
X52705Y-69056
X218758Y-88106
X228917Y-88106
X61595Y-69056
X71755Y-69056
X237808Y-69056
X247968Y-69056
X147320Y-107156
X157480Y-107156
X161607Y-88106
X171767Y-88106
X109220Y-107156
X119380Y-107156
X204470Y-107156
X214630Y-107156
X156845Y-69056
X167005Y-69056
X85408Y-88106
X95568Y-88106
X25876Y-88106
X36036Y-88106
X80645Y-126206
X90805Y-126206
X47308Y-88106
X57468Y-88106
X242570Y-126206
X252730Y-126206
X118745Y-69056
X128905Y-69056
X180658Y-88106
X190818Y-88106
T7
X90488Y-135731
X204788Y-59531
X276225Y-59531
X204788Y-135731
X276225Y-135731
X90488Y-59531
X259556Y-100648
X19050Y-135731
X19050Y-59531
X273844Y-100648
T8
X126174Y-133191
X150051Y-133191
T9
X109538Y-88106
X204788Y-88106
X71438Y-88106
X180975Y-69056
X190500Y-126206
X85725Y-69056
X95250Y-107156
X47625Y-69056
X223838Y-88106
X66675Y-69056
X242888Y-69056
X152400Y-107156
X166688Y-88106
X114300Y-107156
X209550Y-107156
X161925Y-69056
X90488Y-88106
X30956Y-88106
X85725Y-126206
X52388Y-88106
X247650Y-126206
X123825Y-69056
X185737Y-88106
X228600Y-126238
X33338Y-107156
X104775Y-69056
X126174Y-117951
X138112Y-126206
X150051Y-117951
X247650Y-107156
X28575Y-69056
X128588Y-88106
X147638Y-88106
X228600Y-107156
X107156Y-126206
X47625Y-126206
X28575Y-126206
X190500Y-107156
X169069Y-126206
X142875Y-69056
X76200Y-107156
X245269Y-88106
X57150Y-107156
X200025Y-69056
X133350Y-107156
X171450Y-107156
X209550Y-126206
X66675Y-126206
X219075Y-69056
T5
G00X197374Y-64587
M15
G01X196166Y-66485
M16
G05
G00X202565Y-63977
M15
G01X202525Y-64556
M16
G05
G00X130699Y-102687
M15
G01X129491Y-104585
M16
G05
G00X135890Y-102077
M15
G01X135850Y-102656
M16
G05
G00X168799Y-102687
M15
G01X167591Y-104585
M16
G05
G00X173990Y-102077
M15
G01X173950Y-102656
M16
G05
G00X206899Y-121737
M15
G01X205691Y-123635
M16
G05
G00X212090Y-121127
M15
G01X212050Y-121706
M16
G05
G00X64024Y-121737
M15
G01X62816Y-123635
M16
G05
G00X69215Y-121127
M15
G01X69175Y-121706
M16
G05
G00X216424Y-64587
M15
G01X215216Y-66485
M16
G05
G00X221615Y-63977
M15
G01X221575Y-64556
M16
G05
G00X106887Y-83637
M15
G01X105678Y-85535
M16
G05
G00X112077Y-83027
M15
G01X112038Y-83606
M16
G05
G00X202137Y-83637
M15
G01X200928Y-85535
M16
G05
G00X207327Y-83027
M15
G01X207288Y-83606
M16
G05
G00X68787Y-83637
M15
G01X67578Y-85535
M16
G05
G00X73977Y-83027
M15
G01X73938Y-83606
M16
G05
G00X178324Y-64587
M15
G01X177116Y-66485
M16
G05
G00X183515Y-63977
M15
G01X183475Y-64556
M16
G05
G00X187849Y-121737
M15
G01X186641Y-123635
M16
G05
G00X193040Y-121127
M15
G01X193000Y-121706
M16
G05
G00X83074Y-64587
M15
G01X81866Y-66485
M16
G05
G00X88265Y-63977
M15
G01X88225Y-64556
M16
G05
G00X92599Y-102687
M15
G01X91391Y-104585
M16
G05
G00X97790Y-102077
M15
G01X97750Y-102656
M16
G05
G00X44974Y-64587
M15
G01X43766Y-66485
M16
G05
G00X50165Y-63977
M15
G01X50125Y-64556
M16
G05
G00X221187Y-83637
M15
G01X219978Y-85535
M16
G05
G00X226377Y-83027
M15
G01X226338Y-83606
M16
G05
G00X64024Y-64587
M15
G01X62816Y-66485
M16
G05
G00X69215Y-63977
M15
G01X69175Y-64556
M16
G05
G00X240237Y-64587
M15
G01X239028Y-66485
M16
G05
G00X245427Y-63977
M15
G01X245388Y-64556
M16
G05
G00X149749Y-102687
M15
G01X148541Y-104585
M16
G05
G00X154940Y-102077
M15
G01X154900Y-102656
M16
G05
G00X164037Y-83637
M15
G01X162828Y-85535
M16
G05
G00X169227Y-83027
M15
G01X169188Y-83606
M16
G05
G00X111649Y-102687
M15
G01X110441Y-104585
M16
G05
G00X116840Y-102077
M15
G01X116800Y-102656
M16
G05
G00X206899Y-102687
M15
G01X205691Y-104585
M16
G05
G00X212090Y-102077
M15
G01X212050Y-102656
M16
G05
G00X159274Y-64587
M15
G01X158066Y-66485
M16
G05
G00X164465Y-63977
M15
G01X164425Y-64556
M16
G05
G00X87837Y-83637
M15
G01X86628Y-85535
M16
G05
G00X93027Y-83027
M15
G01X92988Y-83606
M16
G05
G00X28306Y-83637
M15
G01X27097Y-85535
M16
G05
G00X33496Y-83027
M15
G01X33457Y-83606
M16
G05
G00X83074Y-121737
M15
G01X81866Y-123635
M16
G05
G00X88265Y-121127
M15
G01X88225Y-121706
M16
G05
G00X49737Y-83637
M15
G01X48528Y-85535
M16
G05
G00X54927Y-83027
M15
G01X54888Y-83606
M16
G05
G00X244999Y-121737
M15
G01X243791Y-123635
M16
G05
G00X250190Y-121127
M15
G01X250150Y-121706
M16
G05
G00X121174Y-64587
M15
G01X119966Y-66485
M16
G05
G00X126365Y-63977
M15
G01X126325Y-64556
M16
G05
G00X183087Y-83637
M15
G01X181878Y-85535
M16
G05
G00X188277Y-83027
M15
G01X188238Y-83606
M16
G05
G00X225949Y-121769
M15
G01X224741Y-123667
M16
G05
G00X231140Y-121159
M15
G01X231100Y-121737
M16
G05
G00X30687Y-102687
M15
G01X29478Y-104585
M16
G05
G00X35877Y-102077
M15
G01X35838Y-102656
M16
G05
G00X102124Y-64587
M15
G01X100916Y-66485
M16
G05
G00X107315Y-63977
M15
G01X107275Y-64556
M16
G05
G00X135573Y-131286
M15
G01X135612Y-130707
M16
G05
G00X140763Y-130675
M15
G01X141972Y-128777
M16
G05
G00X244999Y-102687
M15
G01X243791Y-104585
M16
G05
G00X250190Y-102077
M15
G01X250150Y-102656
M16
G05
G00X25924Y-64587
M15
G01X24716Y-66485
M16
G05
G00X31115Y-63977
M15
G01X31075Y-64556
M16
G05
G00X125937Y-83637
M15
G01X124728Y-85535
M16
G05
G00X131127Y-83027
M15
G01X131088Y-83606
M16
G05
G00X144987Y-83637
M15
G01X143778Y-85535
M16
G05
G00X150177Y-83027
M15
G01X150138Y-83606
M16
G05
G00X225949Y-102687
M15
G01X224741Y-104585
M16
G05
G00X231140Y-102077
M15
G01X231100Y-102656
M16
G05
G00X104506Y-121737
M15
G01X103297Y-123635
M16
G05
G00X109696Y-121127
M15
G01X109657Y-121706
M16
G05
G00X44974Y-121737
M15
G01X43766Y-123635
M16
G05
G00X50165Y-121127
M15
G01X50125Y-121706
M16
G05
G00X261100Y-113650
M15
G01X261100Y-114950
M16
G05
G00X272300Y-113650
M15
G01X272300Y-114950
M16
G05
G00X25924Y-121737
M15
G01X24716Y-123635
M16
G05
G00X31115Y-121127
M15
G01X31075Y-121706
M16
G05
G00X187849Y-102687
M15
G01X186641Y-104585
M16
G05
G00X193040Y-102077
M15
G01X193000Y-102656
M16
G05
G00X166418Y-121737
M15
G01X165209Y-123635
M16
G05
G00X171608Y-121127
M15
G01X171569Y-121706
M16
G05
G00X140224Y-64587
M15
G01X139016Y-66485
M16
G05
G00X145415Y-63977
M15
G01X145375Y-64556
M16
G05
G00X73549Y-102687
M15
G01X72341Y-104585
M16
G05
G00X78740Y-102077
M15
G01X78700Y-102656
M16
G05
G00X242618Y-83637
M15
G01X241409Y-85535
M16
G05
G00X247808Y-83027
M15
G01X247769Y-83606
M16
G05
G00X54499Y-102687
M15
G01X53291Y-104585
M16
G05
G00X59690Y-102077
M15
G01X59650Y-102656
M16
G05
T0
M30
